<mxfile host="app.diagrams.net" agent="Mozilla/5.0 (Macintosh; Intel Mac OS X 10_15_7) AppleWebKit/537.36 (KHTML, like Gecko) Chrome/128.0.0.0 Safari/537.36" version="24.7.12">
  <diagram name="Página-1" id="Ag_XRTpZDKfjU94lQE6s">
    <mxGraphModel dx="1306" dy="826" grid="1" gridSize="10" guides="1" tooltips="1" connect="1" arrows="1" fold="1" page="1" pageScale="1" pageWidth="827" pageHeight="1169" math="0" shadow="0">
      <root>
        <mxCell id="0" />
        <mxCell id="1" parent="0" />
        <mxCell id="GbyjPMjEv9Rc1lk0YDpi-1" value="" style="sketch=0;outlineConnect=0;fontColor=#232F3E;gradientColor=none;fillColor=#232F3D;strokeColor=none;dashed=0;verticalLabelPosition=bottom;verticalAlign=top;align=center;html=1;fontSize=12;fontStyle=0;aspect=fixed;pointerEvents=1;shape=mxgraph.aws4.generic_database;" vertex="1" parent="1">
          <mxGeometry x="440" y="370" width="69" height="91.22" as="geometry" />
        </mxCell>
        <mxCell id="GbyjPMjEv9Rc1lk0YDpi-2" value="Redis" style="text;html=1;align=center;verticalAlign=middle;whiteSpace=wrap;rounded=0;" vertex="1" parent="1">
          <mxGeometry x="444.50000000000006" y="416.4" width="60" height="30" as="geometry" />
        </mxCell>
        <mxCell id="GbyjPMjEv9Rc1lk0YDpi-3" value="" style="sketch=0;aspect=fixed;pointerEvents=1;shadow=0;dashed=0;html=1;strokeColor=none;labelPosition=center;verticalLabelPosition=bottom;verticalAlign=top;align=center;fillColor=#00188D;shape=mxgraph.azure.queue_generic" vertex="1" parent="1">
          <mxGeometry x="300" y="110" width="166.67" height="50" as="geometry" />
        </mxCell>
        <mxCell id="GbyjPMjEv9Rc1lk0YDpi-4" value="Queue&lt;div&gt;(Rabbit)&lt;/div&gt;" style="text;html=1;align=center;verticalAlign=middle;whiteSpace=wrap;rounded=0;" vertex="1" parent="1">
          <mxGeometry x="343.33000000000004" y="170" width="60" height="30" as="geometry" />
        </mxCell>
        <mxCell id="GbyjPMjEv9Rc1lk0YDpi-5" value="" style="aspect=fixed;sketch=0;html=1;dashed=0;whitespace=wrap;verticalLabelPosition=bottom;verticalAlign=top;fillColor=#2875E2;strokeColor=#ffffff;points=[[0.005,0.63,0],[0.1,0.2,0],[0.9,0.2,0],[0.5,0,0],[0.995,0.63,0],[0.72,0.99,0],[0.5,1,0],[0.28,0.99,0]];shape=mxgraph.kubernetes.icon2;prIcon=api" vertex="1" parent="1">
          <mxGeometry x="570" y="321.6" width="130" height="124.8" as="geometry" />
        </mxCell>
        <mxCell id="GbyjPMjEv9Rc1lk0YDpi-6" value="api-contenidos" style="text;html=1;align=center;verticalAlign=middle;whiteSpace=wrap;rounded=0;" vertex="1" parent="1">
          <mxGeometry x="592.5" y="410" width="85" height="30" as="geometry" />
        </mxCell>
        <mxCell id="GbyjPMjEv9Rc1lk0YDpi-7" value="" style="aspect=fixed;sketch=0;html=1;dashed=0;whitespace=wrap;verticalLabelPosition=bottom;verticalAlign=top;fillColor=#2875E2;strokeColor=#ffffff;points=[[0.005,0.63,0],[0.1,0.2,0],[0.9,0.2,0],[0.5,0,0],[0.995,0.63,0],[0.72,0.99,0],[0.5,1,0],[0.28,0.99,0]];shape=mxgraph.kubernetes.icon2;prIcon=api" vertex="1" parent="1">
          <mxGeometry x="80" y="321.6" width="130" height="124.8" as="geometry" />
        </mxCell>
        <mxCell id="GbyjPMjEv9Rc1lk0YDpi-9" value="backoffice-api" style="text;html=1;align=center;verticalAlign=middle;whiteSpace=wrap;rounded=0;" vertex="1" parent="1">
          <mxGeometry x="100" y="410" width="90" height="30" as="geometry" />
        </mxCell>
        <mxCell id="GbyjPMjEv9Rc1lk0YDpi-19" style="edgeStyle=orthogonalEdgeStyle;rounded=0;orthogonalLoop=1;jettySize=auto;html=1;exitX=0.5;exitY=0;exitDx=0;exitDy=0;exitPerimeter=0;" edge="1" parent="1" source="GbyjPMjEv9Rc1lk0YDpi-12">
          <mxGeometry relative="1" as="geometry">
            <mxPoint x="145" y="260" as="targetPoint" />
          </mxGeometry>
        </mxCell>
        <mxCell id="GbyjPMjEv9Rc1lk0YDpi-12" value="" style="aspect=fixed;sketch=0;html=1;dashed=0;whitespace=wrap;verticalLabelPosition=bottom;verticalAlign=top;fillColor=#ab1717;strokeColor=#ffffff;points=[[0.005,0.63,0],[0.1,0.2,0],[0.9,0.2,0],[0.5,0,0],[0.995,0.63,0],[0.72,0.99,0],[0.5,1,0],[0.28,0.99,0]];shape=mxgraph.kubernetes.icon2;prIcon=api" vertex="1" parent="1">
          <mxGeometry x="105" y="280" width="80" height="76.8" as="geometry" />
        </mxCell>
        <mxCell id="GbyjPMjEv9Rc1lk0YDpi-13" value="Publisher&lt;div&gt;(event)&lt;/div&gt;" style="text;html=1;align=center;verticalAlign=middle;whiteSpace=wrap;rounded=0;" vertex="1" parent="1">
          <mxGeometry x="115" y="303.40000000000003" width="60" height="30" as="geometry" />
        </mxCell>
        <mxCell id="GbyjPMjEv9Rc1lk0YDpi-16" value="" style="aspect=fixed;sketch=0;html=1;dashed=0;whitespace=wrap;verticalLabelPosition=bottom;verticalAlign=top;fillColor=#67AB9F;strokeColor=#ffffff;points=[[0.005,0.63,0],[0.1,0.2,0],[0.9,0.2,0],[0.5,0,0],[0.995,0.63,0],[0.72,0.99,0],[0.5,1,0],[0.28,0.99,0]];shape=mxgraph.kubernetes.icon2;prIcon=api" vertex="1" parent="1">
          <mxGeometry x="110" y="190" width="70" height="67.2" as="geometry" />
        </mxCell>
        <mxCell id="GbyjPMjEv9Rc1lk0YDpi-18" value="CoreBundle" style="text;html=1;align=center;verticalAlign=middle;whiteSpace=wrap;rounded=0;" vertex="1" parent="1">
          <mxGeometry x="115" y="227.2" width="60" height="30" as="geometry" />
        </mxCell>
        <mxCell id="GbyjPMjEv9Rc1lk0YDpi-20" style="edgeStyle=orthogonalEdgeStyle;rounded=0;orthogonalLoop=1;jettySize=auto;html=1;exitX=0.5;exitY=0;exitDx=0;exitDy=0;exitPerimeter=0;entryX=0;entryY=0.5;entryDx=0;entryDy=0;entryPerimeter=0;" edge="1" parent="1" source="GbyjPMjEv9Rc1lk0YDpi-16" target="GbyjPMjEv9Rc1lk0YDpi-3">
          <mxGeometry relative="1" as="geometry" />
        </mxCell>
        <mxCell id="GbyjPMjEv9Rc1lk0YDpi-21" value="" style="aspect=fixed;sketch=0;html=1;dashed=0;whitespace=wrap;verticalLabelPosition=bottom;verticalAlign=top;fillColor=#67AB9F;strokeColor=#ffffff;points=[[0.005,0.63,0],[0.1,0.2,0],[0.9,0.2,0],[0.5,0,0],[0.995,0.63,0],[0.72,0.99,0],[0.5,1,0],[0.28,0.99,0]];shape=mxgraph.kubernetes.icon2;prIcon=api" vertex="1" parent="1">
          <mxGeometry x="600" y="190" width="70" height="67.2" as="geometry" />
        </mxCell>
        <mxCell id="GbyjPMjEv9Rc1lk0YDpi-22" value="CoreBundle" style="text;html=1;align=center;verticalAlign=middle;whiteSpace=wrap;rounded=0;" vertex="1" parent="1">
          <mxGeometry x="605" y="227.2" width="60" height="30" as="geometry" />
        </mxCell>
        <mxCell id="GbyjPMjEv9Rc1lk0YDpi-23" value="" style="aspect=fixed;sketch=0;html=1;dashed=0;whitespace=wrap;verticalLabelPosition=bottom;verticalAlign=top;fillColor=#ab1717;strokeColor=#ffffff;points=[[0.005,0.63,0],[0.1,0.2,0],[0.9,0.2,0],[0.5,0,0],[0.995,0.63,0],[0.72,0.99,0],[0.5,1,0],[0.28,0.99,0]];shape=mxgraph.kubernetes.icon2;prIcon=api" vertex="1" parent="1">
          <mxGeometry x="595" y="280" width="80" height="76.8" as="geometry" />
        </mxCell>
        <mxCell id="GbyjPMjEv9Rc1lk0YDpi-32" style="edgeStyle=orthogonalEdgeStyle;rounded=0;orthogonalLoop=1;jettySize=auto;html=1;exitX=0;exitY=0.25;exitDx=0;exitDy=0;" edge="1" parent="1" source="GbyjPMjEv9Rc1lk0YDpi-24" target="GbyjPMjEv9Rc1lk0YDpi-1">
          <mxGeometry relative="1" as="geometry">
            <Array as="points">
              <mxPoint x="605" y="330" />
              <mxPoint x="475" y="330" />
            </Array>
          </mxGeometry>
        </mxCell>
        <mxCell id="GbyjPMjEv9Rc1lk0YDpi-24" value="&lt;div&gt;Consumer (event)&lt;/div&gt;" style="text;html=1;align=center;verticalAlign=middle;whiteSpace=wrap;rounded=0;" vertex="1" parent="1">
          <mxGeometry x="605" y="303.40000000000003" width="60" height="30" as="geometry" />
        </mxCell>
        <mxCell id="GbyjPMjEv9Rc1lk0YDpi-25" style="edgeStyle=orthogonalEdgeStyle;rounded=0;orthogonalLoop=1;jettySize=auto;html=1;entryX=0.5;entryY=0;entryDx=0;entryDy=0;entryPerimeter=0;" edge="1" parent="1" source="GbyjPMjEv9Rc1lk0YDpi-3" target="GbyjPMjEv9Rc1lk0YDpi-21">
          <mxGeometry relative="1" as="geometry" />
        </mxCell>
        <mxCell id="GbyjPMjEv9Rc1lk0YDpi-26" style="edgeStyle=orthogonalEdgeStyle;rounded=0;orthogonalLoop=1;jettySize=auto;html=1;entryX=0.5;entryY=0;entryDx=0;entryDy=0;entryPerimeter=0;" edge="1" parent="1" source="GbyjPMjEv9Rc1lk0YDpi-22" target="GbyjPMjEv9Rc1lk0YDpi-23">
          <mxGeometry relative="1" as="geometry" />
        </mxCell>
        <mxCell id="GbyjPMjEv9Rc1lk0YDpi-29" value="&lt;h1 style=&quot;margin-top: 0px;&quot;&gt;Indexación&lt;/h1&gt;&lt;p&gt;En la reindexación de documentos, la api publica un evento asíncrono al RabbitMQ a través del CoreBundle envíando en el evento el &quot;id&quot; y &quot;colección&quot;.&lt;/p&gt;" style="text;html=1;whiteSpace=wrap;overflow=hidden;rounded=0;" vertex="1" parent="1">
          <mxGeometry x="190" y="200" width="180" height="120" as="geometry" />
        </mxCell>
        <mxCell id="GbyjPMjEv9Rc1lk0YDpi-30" value="&lt;h1 style=&quot;margin-top: 0px;&quot;&gt;Indexación&lt;/h1&gt;&lt;p&gt;La API tiene un webhook con un consumer / subscriber del evento de RabbitMQ a través de CoreBundle, y consume el evento rompiendo la caché en Redis para el documento indicado en el evento.&lt;/p&gt;" style="text;html=1;whiteSpace=wrap;overflow=hidden;rounded=0;" vertex="1" parent="1">
          <mxGeometry x="412.5" y="173.4" width="180" height="160" as="geometry" />
        </mxCell>
      </root>
    </mxGraphModel>
  </diagram>
</mxfile>
